<?xml version="1.0" encoding="utf-8"?>
<!-- Generator: Adobe Illustrator 26.5.0, SVG Export Plug-In . SVG Version: 6.00 Build 0)  -->
<svg version="1.1" id="Layer_1" xmlns="http://www.w3.org/2000/svg" xmlns:xlink="http://www.w3.org/1999/xlink" x="0px" y="0px"
	 viewBox="0 0 403.1 150.7" style="enable-background:new 0 0 403.1 150.7;" xml:space="preserve">
<style type="text/css">
	.st0{fill:#FFFFFF;}
</style>
<path id="Logo" class="st0" d="M108.6,56.6h-9.8V17.5h9.8V56.6z M25.5,17.5h-9.8v39.1h9.8C25.5,56.6,25.5,17.5,25.5,17.5z M45,37.1
	H25.5L45,56.6V37.1z M84.1,27.3c0-5.4-4.4-9.8-9.8-9.8v19.5C79.7,37.1,84.1,32.7,84.1,27.3z M15.7,66.4c0,5.4,4.4,9.8,9.8,9.8V56.6
	C20.1,56.6,15.7,61,15.7,66.4z M35.3,85.9c0-5.4-4.4-9.8-9.8-9.8v19.5C30.9,95.7,35.3,91.3,35.3,85.9z M84.1,95.7V56.6h9.8
	L54.8,17.5v39.1H35.3v9.8h19.5v29.3h9.8V56.6h9.8v39.1L84.1,95.7L84.1,95.7z M103.7,76.2L84.1,95.7h39.1L103.7,76.2L103.7,76.2z
	 M84.1,134.8h39.1l-19.5-19.5L84.1,134.8L84.1,134.8z M74.4,134.8V95.7h-9.8v39.1H74.4z M15.7,95.7l39.1,39.1V95.7
	C54.8,95.7,15.7,95.7,15.7,95.7z"/>
<g>
	<path class="st0" d="M144.3,56.8h7.2v17.6l14.9-17.7h7.8l-16.1,18.6L175,95.6h-8.5l-15-18.2v18.2h-7.2L144.3,56.8L144.3,56.8z"/>
	<path class="st0" d="M180.4,67.2h6.6v5.3c1.8-3.6,4.5-5.7,9.2-5.8v6.2c-5.8,0.1-9.2,1.9-9.2,7.9v14.8h-6.6V67.2L180.4,67.2z"/>
	<path class="st0" d="M201.3,58.8c0-2.2,1.7-3.8,3.9-3.8s3.9,1.6,3.9,3.8s-1.7,3.8-3.9,3.8S201.3,60.9,201.3,58.8z M202,67.2h6.6
		v28.4H202V67.2z"/>
	<path class="st0" d="M215,86.8h6.2c0.3,2.9,1.8,4.6,5.7,4.6c3.5,0,5.1-1.2,5.1-3.7s-1.9-3.2-6.1-3.9c-7.5-1.2-10.3-3.3-10.3-8.7
		c0-5.7,5.3-8.5,10.7-8.5c5.8,0,10.4,2.2,11.1,8.6h-6.1c-0.5-2.6-2-3.8-5.1-3.8c-2.8,0-4.5,1.4-4.5,3.4s1.4,2.9,5.9,3.6
		c6.7,1,10.7,2.7,10.7,8.7s-4.1,9.1-11.4,9.1S215.3,92.8,215,86.8L215,86.8z"/>
	<path class="st0" d="M245.8,87.7V72.1H242v-4.9h3.8v-6.3h6.6v6.3h6.3v4.9h-6.3v15c0,2.5,1.2,3.6,3.3,3.6c1.3,0,2.3-0.2,3.2-0.5v5.2
		c-1,0.4-2.5,0.7-4.5,0.7C248.7,96.1,245.8,93.1,245.8,87.7z"/>
	<path class="st0" d="M264.1,58.8c0-2.2,1.7-3.8,3.9-3.8s3.9,1.6,3.9,3.8s-1.7,3.8-3.9,3.8S264.1,60.9,264.1,58.8z M264.8,67.2h6.6
		v28.4h-6.6V67.2z"/>
	<path class="st0" d="M277.7,87.8c0-6.6,6.4-9,14.6-9h3.5v-1.5c0-3.8-1.3-5.7-5.2-5.7c-3.4,0-5.1,1.6-5.4,4.5h-6.4
		c0.5-6.6,5.8-9.4,12.2-9.4s11.4,2.6,11.4,10.4v18.7H296v-3.5c-1.9,2.4-4.4,4-8.7,4C282,96.2,277.7,93.7,277.7,87.8L277.7,87.8z
		 M295.8,85.7v-2.8h-3.4c-5,0-8.2,1.1-8.2,4.6c0,2.4,1.3,4,4.6,4C292.9,91.5,295.9,89.3,295.8,85.7L295.8,85.7z"/>
	<path class="st0" d="M310.5,67.2h6.6v4.5c1.4-2.8,4.5-5.1,9.2-5.1c5.7,0,9.7,3.3,9.7,11.2v17.9h-6.6V78.4c0-4.3-1.7-6.3-5.7-6.3
		c-3.7,0-6.7,2.3-6.7,6.8v16.8h-6.6V67.2L310.5,67.2z"/>
	<path class="st0" d="M343.3,58.8c0-2.2,1.7-3.8,3.9-3.8s3.9,1.6,3.9,3.8s-1.7,3.8-3.9,3.8S343.3,60.9,343.3,58.8z M344,67.2h6.6
		v28.4H344V67.2z"/>
	<path class="st0" d="M357,87.8c0-6.6,6.4-9,14.6-9h3.5v-1.5c0-3.8-1.3-5.7-5.2-5.7c-3.4,0-5.1,1.6-5.4,4.5h-6.4
		c0.5-6.6,5.8-9.4,12.2-9.4s11.4,2.6,11.4,10.4v18.7h-6.5v-3.5c-1.9,2.4-4.4,4-8.7,4C361.3,96.2,357,93.7,357,87.8L357,87.8z
		 M375.1,85.7v-2.8h-3.4c-5,0-8.2,1.1-8.2,4.6c0,2.4,1.3,4,4.6,4C372.1,91.5,375.1,89.3,375.1,85.7L375.1,85.7z"/>
</g>
</svg>
