<?xml version="1.0" encoding="UTF-8"?><svg id="Layer_1" xmlns="http://www.w3.org/2000/svg" viewBox="0 0 344.92 456.4"><defs><style>.cls-1{fill:#231f20;}</style></defs><path id="Logo" class="cls-1" d="M259.4,152.65h-21.57V66.38h21.57v86.27ZM76.07,66.38h-21.57v86.27h21.57V66.38Zm43.14,43.14h-43.14l43.14,43.14v-43.14Zm86.27-21.57c0-11.91-9.66-21.57-21.57-21.57v43.14c11.91,0,21.57-9.66,21.57-21.57ZM54.5,174.22c0,11.91,9.66,21.57,21.57,21.57v-43.14c-11.91,0-21.57,9.66-21.57,21.57Zm43.14,43.14c0-11.91-9.66-21.57-21.57-21.57v43.14c11.91,0,21.57-9.66,21.57-21.57Zm107.84,21.57v-86.27h21.57l-86.27-86.27v86.27h-43.14v21.57h43.14v64.7h21.57v-86.27h21.57v86.27h21.57Zm43.14-43.14l-43.14,43.14h86.27l-43.14-43.14Zm-43.14,129.41h86.27l-43.14-43.14-43.14,43.14Zm-21.57,0v-86.27h-21.57v86.27h21.57ZM54.5,238.93l86.27,86.27v-86.27H54.5Z"/><g><path class="cls-1" d="M54.5,355.23h7.23v17.62l14.9-17.68h7.78l-16.1,18.6,16.92,20.34h-8.54l-14.96-18.17v18.17h-7.23v-38.89Z"/><path class="cls-1" d="M90.62,365.68h6.58v5.33c1.79-3.59,4.46-5.71,9.25-5.77v6.15c-5.77,.05-9.25,1.9-9.25,7.94v14.79h-6.58v-28.45Z"/><path class="cls-1" d="M111.5,357.25c0-2.18,1.74-3.81,3.92-3.81s3.92,1.63,3.92,3.81-1.74,3.75-3.92,3.75-3.92-1.63-3.92-3.75Zm.71,8.43h6.58v28.45h-6.58v-28.45Z"/><path class="cls-1" d="M125.22,385.26h6.2c.33,2.88,1.79,4.57,5.66,4.57,3.54,0,5.11-1.25,5.11-3.65s-1.9-3.21-6.09-3.92c-7.5-1.2-10.28-3.32-10.28-8.65,0-5.71,5.33-8.54,10.66-8.54,5.82,0,10.44,2.18,11.15,8.59h-6.09c-.54-2.61-2.01-3.81-5.06-3.81-2.83,0-4.52,1.36-4.52,3.37s1.36,2.88,5.88,3.64c6.69,1.03,10.66,2.67,10.66,8.7s-4.08,9.08-11.37,9.08-11.64-3.37-11.91-9.41Z"/><path class="cls-1" d="M156,386.18v-15.56h-3.81v-4.95h3.81v-6.26h6.58v6.26h6.26v4.95h-6.26v14.96c0,2.5,1.2,3.64,3.26,3.64,1.31,0,2.28-.16,3.21-.54v5.22c-1.03,.38-2.45,.71-4.46,.71-5.66,0-8.59-3.05-8.59-8.43Z"/><path class="cls-1" d="M174.28,357.25c0-2.18,1.74-3.81,3.92-3.81s3.92,1.63,3.92,3.81-1.74,3.75-3.92,3.75-3.92-1.63-3.92-3.75Zm.71,8.43h6.58v28.45h-6.58v-28.45Z"/><path class="cls-1" d="M187.94,386.24c0-6.64,6.42-9.03,14.58-9.03h3.54v-1.47c0-3.81-1.31-5.71-5.17-5.71-3.43,0-5.11,1.63-5.44,4.46h-6.36c.54-6.64,5.82-9.41,12.18-9.41s11.37,2.61,11.37,10.39v18.66h-6.47v-3.48c-1.85,2.45-4.35,4.03-8.7,4.03-5.22,0-9.52-2.5-9.52-8.43Zm18.11-2.07v-2.83h-3.37c-5,0-8.21,1.14-8.21,4.62,0,2.39,1.3,3.97,4.57,3.97,4.03,0,7.02-2.12,7.02-5.77Z"/><path class="cls-1" d="M220.67,365.68h6.58v4.51c1.36-2.77,4.52-5.11,9.19-5.11,5.71,0,9.74,3.32,9.74,11.15v17.9h-6.58v-17.3c0-4.3-1.74-6.26-5.66-6.26-3.7,0-6.69,2.29-6.69,6.8v16.75h-6.58v-28.45Z"/><path class="cls-1" d="M253.51,357.25c0-2.18,1.74-3.81,3.92-3.81s3.92,1.63,3.92,3.81-1.74,3.75-3.92,3.75-3.92-1.63-3.92-3.75Zm.71,8.43h6.58v28.45h-6.58v-28.45Z"/><path class="cls-1" d="M267.17,386.24c0-6.64,6.42-9.03,14.58-9.03h3.53v-1.47c0-3.81-1.3-5.71-5.17-5.71-3.43,0-5.11,1.63-5.44,4.46h-6.36c.54-6.64,5.82-9.41,12.18-9.41s11.37,2.61,11.37,10.39v18.66h-6.47v-3.48c-1.85,2.45-4.35,4.03-8.7,4.03-5.22,0-9.52-2.5-9.52-8.43Zm18.11-2.07v-2.83h-3.37c-5.01,0-8.21,1.14-8.21,4.62,0,2.39,1.31,3.97,4.57,3.97,4.02,0,7.02-2.12,7.02-5.77Z"/></g></svg>