<?xml version="1.0" encoding="utf-8"?>
<!-- Generator: Adobe Illustrator 26.5.0, SVG Export Plug-In . SVG Version: 6.00 Build 0)  -->
<svg version="1.1" id="Layer_1" xmlns="http://www.w3.org/2000/svg" xmlns:xlink="http://www.w3.org/1999/xlink" x="0px" y="0px"
	 viewBox="0 0 1190.6 841.9" style="enable-background:new 0 0 1190.6 841.9;" xml:space="preserve">
<style type="text/css">
	.st0{fill:#FFFFFF;}
</style>
<g>
	<path id="Logo_00000068665887208015550910000004074909023021190575_" d="M160.2,299.5h-7.7v-30.7h7.7V299.5z M95,268.8h-7.7v30.7
		H95v-15.3V268.8z M110.3,284.1H95l15.3,15.3V284.1z M141,276.5c0-4.2-3.4-7.7-7.7-7.7v15.3C137.5,284.1,141,280.7,141,276.5z
		 M87.3,307.1c0,4.2,3.4,7.7,7.7,7.7v-15.3C90.7,299.5,87.3,302.9,87.3,307.1z M102.6,322.5c0-4.2-3.4-7.7-7.7-7.7v15.3
		C99.2,330.2,102.6,326.7,102.6,322.5z M141,330.2v-30.7h7.7L118,268.8v30.7h-7.7h-7.7v7.7H118v23h7.7v-23v-7.7h7.7v30.7H141z
		 M156.3,314.8L141,330.2h30.7L156.3,314.8z M141,360.8h30.7l-15.3-15.3L141,360.8z M133.3,360.8v-30.7h-7.7v30.7H133.3z
		 M87.3,330.2l30.7,30.7v-30.7H95H87.3z"/>
	<g>
		<path d="M188.2,299.6h5.7v13.8l11.7-13.9h6.1l-12.6,14.6l13.3,16h-6.7l-11.7-14.3v14.3h-5.7V299.6z"/>
		<path d="M216.6,307.8h5.2v4.2c1.4-2.8,3.5-4.5,7.3-4.5v4.8c-4.5,0-7.3,1.5-7.3,6.2v11.6h-5.2V307.8z"/>
		<path d="M233,301.2c0-1.7,1.4-3,3.1-3c1.7,0,3.1,1.3,3.1,3c0,1.7-1.4,2.9-3.1,2.9C234.3,304.1,233,302.8,233,301.2z M233.5,307.8
			h5.2v22.3h-5.2V307.8z"/>
		<path d="M243.7,323.1h4.9c0.3,2.3,1.4,3.6,4.4,3.6c2.8,0,4-1,4-2.9c0-1.8-1.5-2.5-4.8-3.1c-5.9-0.9-8.1-2.6-8.1-6.8
			c0-4.5,4.2-6.7,8.4-6.7c4.6,0,8.2,1.7,8.8,6.7h-4.8c-0.4-2-1.6-3-4-3c-2.2,0-3.5,1.1-3.5,2.6c0,1.6,1.1,2.3,4.6,2.9
			c5.3,0.8,8.4,2.1,8.4,6.8c0,4.5-3.2,7.1-8.9,7.1C247.3,330.5,243.9,327.9,243.7,323.1z"/>
		<path d="M267.9,323.9v-12.2h-3v-3.9h3v-4.9h5.2v4.9h4.9v3.9H273v11.7c0,2,0.9,2.9,2.6,2.9c1,0,1.8-0.1,2.5-0.4v4.1
			c-0.8,0.3-1.9,0.6-3.5,0.6C270.2,330.5,267.9,328.1,267.9,323.9z"/>
		<path d="M282.2,301.2c0-1.7,1.4-3,3.1-3c1.7,0,3.1,1.3,3.1,3c0,1.7-1.4,2.9-3.1,2.9C283.6,304.1,282.2,302.8,282.2,301.2z
			 M282.8,307.8h5.2v22.3h-5.2V307.8z"/>
		<path d="M292.9,323.9c0-5.2,5-7.1,11.4-7.1h2.8v-1.2c0-3-1-4.5-4.1-4.5c-2.7,0-4,1.3-4.3,3.5h-5c0.4-5.2,4.6-7.4,9.6-7.4
			c5,0,8.9,2,8.9,8.2v14.6h-5.1v-2.7c-1.5,1.9-3.4,3.2-6.8,3.2C296.3,330.5,292.9,328.6,292.9,323.9z M307.2,322.3v-2.2h-2.6
			c-3.9,0-6.4,0.9-6.4,3.6c0,1.9,1,3.1,3.6,3.1C304.8,326.8,307.2,325.2,307.2,322.3z"/>
		<path d="M318.6,307.8h5.2v3.5c1.1-2.2,3.5-4,7.2-4c4.5,0,7.6,2.6,7.6,8.8v14h-5.2v-13.6c0-3.4-1.4-4.9-4.4-4.9
			c-2.9,0-5.3,1.8-5.3,5.3v13.1h-5.2V307.8z"/>
		<path d="M344.4,301.2c0-1.7,1.4-3,3.1-3c1.7,0,3.1,1.3,3.1,3c0,1.7-1.4,2.9-3.1,2.9C345.8,304.1,344.4,302.8,344.4,301.2z
			 M345,307.8h5.2v22.3H345V307.8z"/>
		<path d="M355.1,323.9c0-5.2,5-7.1,11.4-7.1h2.8v-1.2c0-3-1-4.5-4.1-4.5c-2.7,0-4,1.3-4.3,3.5h-5c0.4-5.2,4.6-7.4,9.6-7.4
			c5,0,8.9,2,8.9,8.2v14.6h-5.1v-2.7c-1.5,1.9-3.4,3.2-6.8,3.2C358.5,330.5,355.1,328.6,355.1,323.9z M369.4,322.3v-2.2h-2.6
			c-3.9,0-6.4,0.9-6.4,3.6c0,1.9,1,3.1,3.6,3.1C367,326.8,369.4,325.2,369.4,322.3z"/>
	</g>
</g>
<g>
	<g>
		<path id="Logo_00000142872285251816188090000005567070212365234070_" d="M626.4,299.5h-7.7v-30.7h7.7V299.5z M561.2,268.8h-7.7
			v30.7h7.7v-15.3V268.8z M576.6,284.1h-15.3l15.3,15.3V284.1z M607.2,276.5c0-4.2-3.4-7.7-7.7-7.7v15.3
			C603.8,284.1,607.2,280.7,607.2,276.5z M553.5,307.1c0,4.2,3.4,7.7,7.7,7.7v-15.3C557,299.5,553.5,302.9,553.5,307.1z
			 M568.9,322.5c0-4.2-3.4-7.7-7.7-7.7v15.3C565.5,330.2,568.9,326.7,568.9,322.5z M607.2,330.2v-30.7h7.7l-30.7-30.7v30.7h-7.7
			h-7.7v7.7h15.3v23h7.7v-23v-7.7h7.7v30.7H607.2z M622.6,314.8l-15.3,15.3h30.7L622.6,314.8z M607.2,360.8h30.7l-15.3-15.3
			L607.2,360.8z M599.6,360.8v-30.7h-7.7v30.7H599.6z M553.5,330.2l30.7,30.7v-30.7h-23H553.5z"/>
	</g>
	<g>
		<path d="M502.6,384.4h5.7v13.8l11.7-13.9h6.1L513.4,399l13.3,16H520l-11.7-14.3V415h-5.7V384.4z"/>
		<path d="M530.9,392.6h5.2v4.2c1.4-2.8,3.5-4.5,7.3-4.5v4.8c-4.5,0-7.3,1.5-7.3,6.2V415h-5.2V392.6z"/>
		<path d="M547.3,386c0-1.7,1.4-3,3.1-3c1.7,0,3.1,1.3,3.1,3c0,1.7-1.4,2.9-3.1,2.9C548.7,389,547.3,387.7,547.3,386z M547.9,392.6
			h5.2V415h-5.2V392.6z"/>
		<path d="M558.1,408h4.9c0.3,2.3,1.4,3.6,4.4,3.6c2.8,0,4-1,4-2.9c0-1.8-1.5-2.5-4.8-3.1c-5.9-0.9-8.1-2.6-8.1-6.8
			c0-4.5,4.2-6.7,8.4-6.7c4.6,0,8.2,1.7,8.8,6.7h-4.8c-0.4-2-1.6-3-4-3c-2.2,0-3.5,1.1-3.5,2.6c0,1.6,1.1,2.3,4.6,2.9
			c5.3,0.8,8.4,2.1,8.4,6.8c0,4.5-3.2,7.1-8.9,7.1C561.7,415.4,558.3,412.7,558.1,408z"/>
		<path d="M582.2,408.7v-12.2h-3v-3.9h3v-4.9h5.2v4.9h4.9v3.9h-4.9v11.7c0,2,0.9,2.9,2.6,2.9c1,0,1.8-0.1,2.5-0.4v4.1
			c-0.8,0.3-1.9,0.6-3.5,0.6C584.5,415.3,582.2,413,582.2,408.7z"/>
		<path d="M596.6,386c0-1.7,1.4-3,3.1-3c1.7,0,3.1,1.3,3.1,3c0,1.7-1.4,2.9-3.1,2.9C598,389,596.6,387.7,596.6,386z M597.1,392.6
			h5.2V415h-5.2V392.6z"/>
		<path d="M607.3,408.8c0-5.2,5-7.1,11.4-7.1h2.8v-1.2c0-3-1-4.5-4.1-4.5c-2.7,0-4,1.3-4.3,3.5h-5c0.4-5.2,4.6-7.4,9.6-7.4
			c5,0,8.9,2,8.9,8.2V415h-5.1v-2.7c-1.5,1.9-3.4,3.2-6.8,3.2C610.7,415.4,607.3,413.4,607.3,408.8z M621.5,407.1v-2.2h-2.6
			c-3.9,0-6.4,0.9-6.4,3.6c0,1.9,1,3.1,3.6,3.1C619.2,411.7,621.5,410,621.5,407.1z"/>
		<path d="M633,392.6h5.2v3.5c1.1-2.2,3.5-4,7.2-4c4.5,0,7.6,2.6,7.6,8.8v14h-5.2v-13.6c0-3.4-1.4-4.9-4.4-4.9
			c-2.9,0-5.3,1.8-5.3,5.3V415H633V392.6z"/>
		<path d="M658.8,386c0-1.7,1.4-3,3.1-3c1.7,0,3.1,1.3,3.1,3c0,1.7-1.4,2.9-3.1,2.9C660.1,389,658.8,387.7,658.8,386z M659.3,392.6
			h5.2V415h-5.2V392.6z"/>
		<path d="M669.5,408.8c0-5.2,5-7.1,11.4-7.1h2.8v-1.2c0-3-1-4.5-4.1-4.5c-2.7,0-4,1.3-4.3,3.5h-5c0.4-5.2,4.6-7.4,9.6-7.4
			c5,0,8.9,2,8.9,8.2V415h-5.1v-2.7c-1.5,1.9-3.4,3.2-6.8,3.2C672.9,415.4,669.5,413.4,669.5,408.8z M683.7,407.1v-2.2h-2.6
			c-3.9,0-6.4,0.9-6.4,3.6c0,1.9,1,3.1,3.6,3.1C681.4,411.7,683.7,410,683.7,407.1z"/>
	</g>
</g>
<g>
	<g>
		<path id="Logo_00000158006304945101233000000010078064020195668613_" d="M996.5,299.5h-7.7v-30.7h7.7V299.5z M931.2,268.8h-7.7
			v30.7h7.7v-15.4V268.8z M946.5,284.2h-15.4l15.4,15.4V284.2z M977.3,276.5c0-4.2-3.4-7.7-7.7-7.7v15.4
			C973.8,284.2,977.3,280.7,977.3,276.5z M923.5,307.2c0,4.2,3.4,7.7,7.7,7.7v-15.4C926.9,299.5,923.5,303,923.5,307.2z
			 M938.8,322.6c0-4.2-3.4-7.7-7.7-7.7v15.4C935.4,330.3,938.8,326.8,938.8,322.6z M977.3,330.3v-30.7h7.7l-30.7-30.7v30.7h-7.7
			h-7.7v7.7h15.4v23.1h7.7v-23.1v-7.7h7.7v30.7H977.3z M992.6,314.9l-15.4,15.4h30.7L992.6,314.9z M977.3,361h30.7l-15.4-15.4
			L977.3,361z M969.6,361v-30.7h-7.7V361H969.6z M923.5,330.3l30.7,30.7v-30.7h-23.1H923.5z"/>
	</g>
	<g>
		<path d="M923.5,371.7h2.6v6.3l5.3-6.3h2.8l-5.7,6.6l6,7.2h-3l-5.3-6.5v6.5h-2.6V371.7z"/>
		<path d="M936.3,375.4h2.3v1.9c0.6-1.3,1.6-2,3.3-2.1v2.2c-2.1,0-3.3,0.7-3.3,2.8v5.3h-2.3V375.4z"/>
		<path d="M943.8,372.4c0-0.8,0.6-1.4,1.4-1.4c0.8,0,1.4,0.6,1.4,1.4c0,0.8-0.6,1.3-1.4,1.3C944.4,373.8,943.8,373.2,943.8,372.4z
			 M944,375.4h2.3v10.1H944V375.4z"/>
		<path d="M948.7,382.4h2.2c0.1,1,0.6,1.6,2,1.6c1.3,0,1.8-0.4,1.8-1.3c0-0.8-0.7-1.1-2.2-1.4c-2.7-0.4-3.7-1.2-3.7-3.1
			c0-2,1.9-3,3.8-3c2.1,0,3.7,0.8,4,3.1h-2.2c-0.2-0.9-0.7-1.4-1.8-1.4c-1,0-1.6,0.5-1.6,1.2c0,0.7,0.5,1,2.1,1.3
			c2.4,0.4,3.8,1,3.8,3.1c0,2.1-1.5,3.2-4.1,3.2C950.3,385.8,948.8,384.6,948.7,382.4z"/>
		<path d="M959.6,382.7v-5.5h-1.4v-1.8h1.4v-2.2h2.3v2.2h2.2v1.8H962v5.3c0,0.9,0.4,1.3,1.2,1.3c0.5,0,0.8-0.1,1.1-0.2v1.9
			c-0.4,0.1-0.9,0.3-1.6,0.3C960.7,385.7,959.6,384.7,959.6,382.7z"/>
		<path d="M966.1,372.4c0-0.8,0.6-1.4,1.4-1.4c0.8,0,1.4,0.6,1.4,1.4c0,0.8-0.6,1.3-1.4,1.3C966.8,373.8,966.1,373.2,966.1,372.4z
			 M966.4,375.4h2.3v10.1h-2.3V375.4z"/>
		<path d="M971,382.8c0-2.4,2.3-3.2,5.2-3.2h1.3V379c0-1.4-0.5-2-1.8-2c-1.2,0-1.8,0.6-1.9,1.6h-2.3c0.2-2.4,2.1-3.4,4.3-3.4
			c2.3,0,4.1,0.9,4.1,3.7v6.6h-2.3v-1.2c-0.7,0.9-1.6,1.4-3.1,1.4C972.5,385.8,971,384.9,971,382.8z M977.5,382v-1h-1.2
			c-1.8,0-2.9,0.4-2.9,1.6c0,0.9,0.5,1.4,1.6,1.4C976.4,384.1,977.5,383.3,977.5,382z"/>
		<path d="M982.7,375.4h2.3v1.6c0.5-1,1.6-1.8,3.3-1.8c2,0,3.5,1.2,3.5,4v6.4h-2.3v-6.2c0-1.5-0.6-2.2-2-2.2c-1.3,0-2.4,0.8-2.4,2.4
			v6h-2.3V375.4z"/>
		<path d="M994.4,372.4c0-0.8,0.6-1.4,1.4-1.4c0.8,0,1.4,0.6,1.4,1.4c0,0.8-0.6,1.3-1.4,1.3C995,373.8,994.4,373.2,994.4,372.4z
			 M994.6,375.4h2.3v10.1h-2.3V375.4z"/>
		<path d="M999.2,382.8c0-2.4,2.3-3.2,5.2-3.2h1.3V379c0-1.4-0.5-2-1.8-2c-1.2,0-1.8,0.6-1.9,1.6h-2.3c0.2-2.4,2.1-3.4,4.3-3.4
			c2.3,0,4.1,0.9,4.1,3.7v6.6h-2.3v-1.2c-0.7,0.9-1.6,1.4-3.1,1.4C1000.8,385.8,999.2,384.9,999.2,382.8z M1005.7,382v-1h-1.2
			c-1.8,0-2.9,0.4-2.9,1.6c0,0.9,0.5,1.4,1.6,1.4C1004.6,384.1,1005.7,383.3,1005.7,382z"/>
	</g>
</g>
<g>
	<rect x="484.2" y="503.4" width="243.3" height="243.3"/>
	<g>
		<path id="Logo_00000101078637826409580890000015218838324251408536_" class="st0" d="M636.3,584.7h-7.7v-30.7h7.7V584.7z
			 M571.1,554.1h-7.7v30.7h7.7v-15.3V554.1z M586.4,569.4h-15.3l15.3,15.3V569.4z M617.1,561.7c0-4.2-3.4-7.7-7.7-7.7v15.3
			C613.7,569.4,617.1,566,617.1,561.7z M563.4,592.4c0,4.2,3.4,7.7,7.7,7.7v-15.3C566.8,584.7,563.4,588.2,563.4,592.4z
			 M578.7,607.7c0-4.2-3.4-7.7-7.7-7.7v15.3C575.3,615.4,578.7,612,578.7,607.7z M617.1,615.4v-30.7h7.7l-30.7-30.7v30.7h-7.7h-7.7
			v7.7h15.3v23h7.7v-23v-7.7h7.7v30.7H617.1z M632.4,600.1l-15.3,15.3h30.7L632.4,600.1z M617.1,646.1h30.7l-15.3-15.3L617.1,646.1z
			 M609.4,646.1v-30.7h-7.7v30.7H609.4z M563.4,615.4l30.7,30.7v-30.7h-23H563.4z"/>
	</g>
	<g>
		<path class="st0" d="M512.4,669.7h5.7v13.8l11.7-13.9h6.1l-12.6,14.6l13.3,16h-6.7L518.1,686v14.3h-5.7V669.7z"/>
		<path class="st0" d="M540.8,677.9h5.2v4.2c1.4-2.8,3.5-4.5,7.3-4.5v4.8c-4.5,0-7.3,1.5-7.3,6.2v11.6h-5.2V677.9z"/>
		<path class="st0" d="M557.2,671.3c0-1.7,1.4-3,3.1-3c1.7,0,3.1,1.3,3.1,3c0,1.7-1.4,2.9-3.1,2.9
			C558.5,674.2,557.2,672.9,557.2,671.3z M557.7,677.9h5.2v22.3h-5.2V677.9z"/>
		<path class="st0" d="M567.9,693.3h4.9c0.3,2.3,1.4,3.6,4.4,3.6c2.8,0,4-1,4-2.9c0-1.8-1.5-2.5-4.8-3.1c-5.9-0.9-8.1-2.6-8.1-6.8
			c0-4.5,4.2-6.7,8.4-6.7c4.6,0,8.2,1.7,8.8,6.7h-4.8c-0.4-2-1.6-3-4-3c-2.2,0-3.5,1.1-3.5,2.6c0,1.6,1.1,2.3,4.6,2.9
			c5.3,0.8,8.4,2.1,8.4,6.8c0,4.5-3.2,7.1-8.9,7.1C571.5,700.6,568.2,698,567.9,693.3z"/>
		<path class="st0" d="M592.1,694v-12.2h-3v-3.9h3V673h5.2v4.9h4.9v3.9h-4.9v11.7c0,2,0.9,2.9,2.6,2.9c1,0,1.8-0.1,2.5-0.4v4.1
			c-0.8,0.3-1.9,0.6-3.5,0.6C594.4,700.6,592.1,698.2,592.1,694z"/>
		<path class="st0" d="M606.4,671.3c0-1.7,1.4-3,3.1-3c1.7,0,3.1,1.3,3.1,3c0,1.7-1.4,2.9-3.1,2.9
			C607.8,674.2,606.4,672.9,606.4,671.3z M607,677.9h5.2v22.3H607V677.9z"/>
		<path class="st0" d="M617.2,694c0-5.2,5-7.1,11.4-7.1h2.8v-1.2c0-3-1-4.5-4.1-4.5c-2.7,0-4,1.3-4.3,3.5h-5
			c0.4-5.2,4.6-7.4,9.6-7.4c5,0,8.9,2,8.9,8.2v14.6h-5.1v-2.7c-1.5,1.9-3.4,3.2-6.8,3.2C620.5,700.6,617.2,698.7,617.2,694z
			 M631.4,692.4v-2.2h-2.6c-3.9,0-6.4,0.9-6.4,3.6c0,1.9,1,3.1,3.6,3.1C629,696.9,631.4,695.3,631.4,692.4z"/>
		<path class="st0" d="M642.9,677.9h5.2v3.5c1.1-2.2,3.5-4,7.2-4c4.5,0,7.6,2.6,7.6,8.8v14h-5.2v-13.6c0-3.4-1.4-4.9-4.4-4.9
			c-2.9,0-5.3,1.8-5.3,5.3v13.1h-5.2V677.9z"/>
		<path class="st0" d="M668.6,671.3c0-1.7,1.4-3,3.1-3c1.7,0,3.1,1.3,3.1,3c0,1.7-1.4,2.9-3.1,2.9
			C670,674.2,668.6,672.9,668.6,671.3z M669.2,677.9h5.2v22.3h-5.2V677.9z"/>
		<path class="st0" d="M679.4,694c0-5.2,5-7.1,11.4-7.1h2.8v-1.2c0-3-1-4.5-4.1-4.5c-2.7,0-4,1.3-4.3,3.5h-5
			c0.4-5.2,4.6-7.4,9.6-7.4s8.9,2,8.9,8.2v14.6h-5.1v-2.7c-1.5,1.9-3.4,3.2-6.8,3.2C682.7,700.6,679.4,698.7,679.4,694z
			 M693.6,692.4v-2.2h-2.6c-3.9,0-6.4,0.9-6.4,3.6c0,1.9,1,3.1,3.6,3.1C691.2,696.9,693.6,695.3,693.6,692.4z"/>
	</g>
</g>
<g>
	<rect x="87.3" y="503.4" width="295.7" height="118.3"/>
	<g>
		<path id="Logo_00000155142910195356493150000011158422266137063561_" class="st0" d="M174.1,550.7h-6.5v-26.1h6.5V550.7z
			 M118.6,524.6H112v26.1h6.5v-13.1V524.6z M131.6,537.6h-13.1l13.1,13.1V537.6z M157.7,531.1c0-3.6-2.9-6.5-6.5-6.5v13.1
			C154.8,537.6,157.7,534.7,157.7,531.1z M112,557.2c0,3.6,2.9,6.5,6.5,6.5v-13.1C115,550.7,112,553.6,112,557.2z M125.1,570.3
			c0-3.6-2.9-6.5-6.5-6.5v13.1C122.2,576.8,125.1,573.9,125.1,570.3z M157.7,576.8v-26.1h6.5l-26.1-26.1v26.1h-6.5h-6.5v6.5h13.1
			v19.6h6.5v-19.6v-6.5h6.5v26.1H157.7z M170.8,563.8l-13.1,13.1h26.1L170.8,563.8z M157.7,602.9h26.1l-13.1-13.1L157.7,602.9z
			 M151.2,602.9v-26.1h-6.5v26.1H151.2z M112,576.8l26.1,26.1v-26.1h-19.6H112z"/>
		<g>
			<path class="st0" d="M198,550.8h4.8v11.8l10-11.8h5.2l-10.8,12.4l11.3,13.6h-5.7l-10-12.1v12.1H198V550.8z"/>
			<path class="st0" d="M222.1,557.8h4.4v3.6c1.2-2.4,3-3.8,6.2-3.9v4.1c-3.9,0-6.2,1.3-6.2,5.3v9.9h-4.4V557.8z"/>
			<path class="st0" d="M236.1,552.1c0-1.5,1.2-2.5,2.6-2.5c1.5,0,2.6,1.1,2.6,2.5c0,1.4-1.2,2.5-2.6,2.5
				C237.2,554.6,236.1,553.5,236.1,552.1z M236.5,557.8h4.4v19h-4.4V557.8z"/>
			<path class="st0" d="M245.2,570.8h4.1c0.2,1.9,1.2,3.1,3.8,3.1c2.4,0,3.4-0.8,3.4-2.4c0-1.6-1.3-2.1-4.1-2.6
				c-5-0.8-6.9-2.2-6.9-5.8c0-3.8,3.6-5.7,7.1-5.7c3.9,0,7,1.5,7.5,5.7h-4.1c-0.4-1.7-1.3-2.5-3.4-2.5c-1.9,0-3,0.9-3,2.3
				c0,1.4,0.9,1.9,3.9,2.4c4.5,0.7,7.1,1.8,7.1,5.8c0,3.9-2.7,6.1-7.6,6.1C248.3,577.1,245.4,574.9,245.2,570.8z"/>
			<path class="st0" d="M265.8,571.5v-10.4h-2.5v-3.3h2.5v-4.2h4.4v4.2h4.2v3.3h-4.2v10c0,1.7,0.8,2.4,2.2,2.4
				c0.9,0,1.5-0.1,2.1-0.4v3.5c-0.7,0.3-1.6,0.5-3,0.5C267.7,577.1,265.8,575.1,265.8,571.5z"/>
			<path class="st0" d="M278,552.1c0-1.5,1.2-2.5,2.6-2.5c1.5,0,2.6,1.1,2.6,2.5c0,1.4-1.2,2.5-2.6,2.5
				C279.2,554.6,278,553.5,278,552.1z M278.5,557.8h4.4v19h-4.4V557.8z"/>
			<path class="st0" d="M287.1,571.5c0-4.4,4.3-6,9.7-6h2.4v-1c0-2.5-0.9-3.8-3.5-3.8c-2.3,0-3.4,1.1-3.6,3h-4.3
				c0.4-4.4,3.9-6.3,8.1-6.3c4.3,0,7.6,1.7,7.6,6.9v12.5h-4.3v-2.3c-1.2,1.6-2.9,2.7-5.8,2.7C290,577.1,287.1,575.5,287.1,571.5z
				 M299.2,570.1v-1.9H297c-3.3,0-5.5,0.8-5.5,3.1c0,1.6,0.9,2.7,3.1,2.7C297.2,574,299.2,572.6,299.2,570.1z"/>
			<path class="st0" d="M309,557.8h4.4v3c0.9-1.9,3-3.4,6.1-3.4c3.8,0,6.5,2.2,6.5,7.5v12h-4.4v-11.6c0-2.9-1.2-4.2-3.8-4.2
				c-2.5,0-4.5,1.5-4.5,4.5v11.2H309V557.8z"/>
			<path class="st0" d="M330.9,552.1c0-1.5,1.2-2.5,2.6-2.5c1.5,0,2.6,1.1,2.6,2.5c0,1.4-1.2,2.5-2.6,2.5
				C332.1,554.6,330.9,553.5,330.9,552.1z M331.4,557.8h4.4v19h-4.4V557.8z"/>
			<path class="st0" d="M340.1,571.5c0-4.4,4.3-6,9.7-6h2.4v-1c0-2.5-0.9-3.8-3.5-3.8c-2.3,0-3.4,1.1-3.6,3h-4.3
				c0.4-4.4,3.9-6.3,8.1-6.3s7.6,1.7,7.6,6.9v12.5h-4.3v-2.3c-1.2,1.6-2.9,2.7-5.8,2.7C342.9,577.1,340.1,575.5,340.1,571.5z
				 M352.2,570.1v-1.9h-2.3c-3.3,0-5.5,0.8-5.5,3.1c0,1.6,0.9,2.7,3.1,2.7C350.2,574,352.2,572.6,352.2,570.1z"/>
		</g>
	</g>
</g>
<g>
	<rect x="907.5" y="503.4" width="123.9" height="163.9"/>
	<g>
		<path id="Logo_00000056403622425920322440000008349475504162199169_" class="st0" d="M1000.6,558.2h-7.7v-31h7.7V558.2z
			 M934.8,527.3H927v31h7.7v-15.5V527.3z M950.3,542.7h-15.5l15.5,15.5V542.7z M981.2,535c0-4.3-3.5-7.7-7.7-7.7v15.5
			C977.8,542.7,981.2,539.3,981.2,535z M927,566c0,4.3,3.5,7.7,7.7,7.7v-15.5C930.5,558.2,927,561.7,927,566z M942.5,581.5
			c0-4.3-3.5-7.7-7.7-7.7v15.5C939.1,589.2,942.5,585.7,942.5,581.5z M981.2,589.2v-31h7.7l-31-31v31h-7.7h-7.7v7.7H958v23.2h7.7
			V566v-7.7h7.7v31H981.2z M996.7,573.7l-15.5,15.5h31L996.7,573.7z M981.2,620.2h31l-15.5-15.5L981.2,620.2z M973.5,620.2v-31h-7.7
			v31H973.5z M927,589.2l31,31v-31h-23.2H927z"/>
	</g>
	<g>
		<path class="st0" d="M927,631h2.6v6.3l5.4-6.3h2.8l-5.8,6.7l6.1,7.3H935l-5.4-6.5v6.5H927V631z"/>
		<path class="st0" d="M940,634.7h2.4v1.9c0.6-1.3,1.6-2.1,3.3-2.1v2.2c-2.1,0-3.3,0.7-3.3,2.9v5.3H940V634.7z"/>
		<path class="st0" d="M947.5,631.7c0-0.8,0.6-1.4,1.4-1.4c0.8,0,1.4,0.6,1.4,1.4c0,0.8-0.6,1.3-1.4,1.3
			C948.1,633,947.5,632.5,947.5,631.7z M947.8,634.7h2.4v10.2h-2.4V634.7z"/>
		<path class="st0" d="M952.4,641.8h2.2c0.1,1,0.6,1.6,2,1.6c1.3,0,1.8-0.4,1.8-1.3c0-0.8-0.7-1.2-2.2-1.4c-2.7-0.4-3.7-1.2-3.7-3.1
			c0-2.1,1.9-3.1,3.8-3.1c2.1,0,3.8,0.8,4,3.1h-2.2c-0.2-0.9-0.7-1.4-1.8-1.4c-1,0-1.6,0.5-1.6,1.2c0,0.7,0.5,1,2.1,1.3
			c2.4,0.4,3.8,1,3.8,3.1c0,2.1-1.5,3.3-4.1,3.3C954.1,645.1,952.5,643.9,952.4,641.8z"/>
		<path class="st0" d="M963.5,642.1v-5.6h-1.4v-1.8h1.4v-2.2h2.4v2.2h2.2v1.8h-2.2v5.4c0,0.9,0.4,1.3,1.2,1.3c0.5,0,0.8-0.1,1.2-0.2
			v1.9c-0.4,0.1-0.9,0.3-1.6,0.3C964.5,645.1,963.5,644,963.5,642.1z"/>
		<path class="st0" d="M970,631.7c0-0.8,0.6-1.4,1.4-1.4c0.8,0,1.4,0.6,1.4,1.4c0,0.8-0.6,1.3-1.4,1.3
			C970.7,633,970,632.5,970,631.7z M970.3,634.7h2.4v10.2h-2.4V634.7z"/>
		<path class="st0" d="M974.9,642.1c0-2.4,2.3-3.2,5.2-3.2h1.3v-0.5c0-1.4-0.5-2.1-1.9-2.1c-1.2,0-1.8,0.6-2,1.6h-2.3
			c0.2-2.4,2.1-3.4,4.4-3.4c2.3,0,4.1,0.9,4.1,3.7v6.7h-2.3v-1.3c-0.7,0.9-1.6,1.4-3.1,1.4C976.5,645.1,974.9,644.2,974.9,642.1z
			 M981.5,641.4v-1h-1.2c-1.8,0-2.9,0.4-2.9,1.7c0,0.9,0.5,1.4,1.6,1.4C980.4,643.4,981.5,642.7,981.5,641.4z"/>
		<path class="st0" d="M986.7,634.7h2.4v1.6c0.5-1,1.6-1.8,3.3-1.8c2.1,0,3.5,1.2,3.5,4v6.4h-2.4v-6.2c0-1.5-0.6-2.2-2-2.2
			c-1.3,0-2.4,0.8-2.4,2.4v6h-2.4V634.7z"/>
		<path class="st0" d="M998.5,631.7c0-0.8,0.6-1.4,1.4-1.4c0.8,0,1.4,0.6,1.4,1.4c0,0.8-0.6,1.3-1.4,1.3
			C999.1,633,998.5,632.5,998.5,631.7z M998.7,634.7h2.4v10.2h-2.4V634.7z"/>
		<path class="st0" d="M1003.4,642.1c0-2.4,2.3-3.2,5.2-3.2h1.3v-0.5c0-1.4-0.5-2.1-1.9-2.1c-1.2,0-1.8,0.6-2,1.6h-2.3
			c0.2-2.4,2.1-3.4,4.4-3.4s4.1,0.9,4.1,3.7v6.7h-2.3v-1.3c-0.7,0.9-1.6,1.4-3.1,1.4C1004.9,645.1,1003.4,644.2,1003.4,642.1z
			 M1009.9,641.4v-1h-1.2c-1.8,0-2.9,0.4-2.9,1.7c0,0.9,0.5,1.4,1.6,1.4C1008.8,643.4,1009.9,642.7,1009.9,641.4z"/>
	</g>
</g>
<g>
	<rect x="87.3" y="75.8" width="93.3" height="103.1"/>
	<g>
		<path id="Logo_00000105384957275366225660000009652551198764039359_" class="st0" d="M157.5,117.1h-5.8V93.7h5.8V117.1z
			 M107.9,93.7H102v23.3h5.8v-11.7V93.7z M119.5,105.4h-11.7l11.7,11.7V105.4z M142.9,99.6c0-3.2-2.6-5.8-5.8-5.8v11.7
			C140.3,105.4,142.9,102.8,142.9,99.6z M102,122.9c0,3.2,2.6,5.8,5.8,5.8v-11.7C104.6,117.1,102,119.7,102,122.9z M113.7,134.6
			c0-3.2-2.6-5.8-5.8-5.8v11.7C111.1,140.4,113.7,137.8,113.7,134.6z M142.9,140.4v-23.3h5.8l-23.3-23.3v23.3h-5.8h-5.8v5.8h11.7
			v17.5h5.8v-17.5v-5.8h5.8v23.3H142.9z M154.5,128.7l-11.7,11.7h23.3L154.5,128.7z M142.9,163.8h23.3l-11.7-11.7L142.9,163.8z
			 M137,163.8v-23.3h-5.8v23.3H137z M102,140.4l23.3,23.3v-23.3h-17.5H102z"/>
	</g>
</g>
</svg>
